<svg width="21" height="15" viewBox="0 0 21 15" fill="none" xmlns="http://www.w3.org/2000/svg">
<g clip-path="url(#clip0_306_274)">
<path d="M5.04647 14.9264V7.23905L2.65042 5.05799L0.501831 3.84766V13.5698C0.501831 14.3204 1.11305 14.9264 1.86525 14.9264H5.04647Z" fill="#4285F4"/>
<path d="M15.9536 14.9263H19.1348C19.8892 14.9263 20.4982 14.318 20.4982 13.5697V3.84766L18.0646 5.23395L15.9536 7.23898V14.9263Z" fill="#34A853"/>
<path d="M5.04649 7.2388L4.72046 4.23514L5.04649 1.36035L10.5 5.43009L15.9536 1.36035L16.3183 4.07994L15.9536 7.2388L10.5 11.3085L5.04649 7.2388Z" fill="#EA4335"/>
<path d="M15.9536 1.36039V7.23884L20.4982 3.84744V2.03865C20.4982 0.361064 18.5735 -0.595283 17.2261 0.410805L15.9536 1.36039Z" fill="#FBBC04"/>
<path d="M0.502136 3.84747L2.5923 5.40732L5.04678 7.23887V1.36043L3.7742 0.410841C2.42444 -0.595325 0.502136 0.3611 0.502136 2.03861V3.84739V3.84747Z" fill="#C5221F"/>
</g>
<defs>
<clipPath id="clip0_306_274">
<rect width="20" height="15" fill="white" transform="translate(0.5)"/>
</clipPath>
</defs>
</svg>
